# xmcd CD database file
#
# Track frame offsets:
#	150
#	15418
#	29364
#	42681
#	54329
#	68761
#	87204
#	98846
#	112694
#	130407
#	139807
#	155724
#
# Disc length: 2252 seconds
#
# Revision: 1
# Processed by: cddbd v1.5.2PL0 Copyright (c) Steve Scherf et al.
# Submitted via: CDex 1.70beta2
#
DISCID=9a08ca0c
DTITLE=Fred Pellerin - Silence
DYEAR=2009
DGENRE=Folk
TTITLE0=Au commencement du monde
TTITLE1=Là -bas
TTITLE2=Le petit garçon
TTITLE3=Douleur
TTITLE4=Tenir debout
TTITLE5=Mille après mille
TTITLE6=Les Marie
TTITLE7=Quand vous mourrez de nos amours
TTITLE8=Mommy
TTITLE9=L'alouette
TTITLE10=La mort
TTITLE11=Silence
EXTD=YEAR: 2009
EXTT0=
EXTT1=
EXTT2=
EXTT3=
EXTT4=
EXTT5=
EXTT6=
EXTT7=
EXTT8=
EXTT9=
EXTT10=
EXTT11=
PLAYORDER=
